<svg xmlns="http://www.w3.org/2000/svg" viewBox="0 0 512.001 512.001" xmlns:v="https://vecta.io/nano"><path d="M439.762 259.279v214.777H72.93V259.279c0-15.418 12.499-27.927 27.917-27.927h310.997c15.419 0 27.918 12.509 27.918 27.927z" fill="#ffa6b7"/><path d="M72.93 422.923h366.831v23.507H72.93z" fill="#fff4ca"/><path d="M72.93 446.892h366.831v27.164H72.93zm366.832-187.613v60.949h-91.62v9.055a36.53 36.53 0 0 1-10.798 26.03 36.5 36.5 0 0 1-25.989 10.756c-15.17 0-28.216-9.23-33.837-22.369-.619.742-1.269 1.454-1.959 2.145-6.27 6.26-14.603 9.715-23.462 9.715-10.571 0-19.997-4.971-26.081-12.695v15.975c0 14.191-5.528 27.525-15.552 37.539-10.034 10.014-23.359 15.531-37.518 15.531-29.258 0-53.06-23.802-53.06-53.07v-25.184c-5.383 9.374-15.5 15.696-27.071 15.696H72.93v-90.073c0-15.418 12.499-27.927 27.917-27.927h310.997c15.418 0 27.918 12.509 27.918 27.927z" fill="#fc819c"/><path d="M72.93 372.536h366.831v23.503H72.93z" fill="#fff4ca"/><path d="M224.242 372.536c-2.331 8.797-6.91 16.862-13.448 23.503h-75.645c-6.353-6.446-11.066-14.51-13.469-23.503h102.562z" fill="#ffeb96"/><path d="M225.317 120.027h59.679v153.899h-59.679z" fill="#63cec1"/><path d="M225.317 212.169h59.679v61.757h-59.679zm59.679-92.142v40.459h-3.126c-.176 0-.313.144-.313.313v15.076c0 12.575-10.235 22.81-22.818 22.81s-22.819-10.235-22.819-22.81v-15.076c0-.168-.136-.313-.313-.313h-.2l-10.091-.281v-40.179h59.68z" fill="#5bbaac"/><path d="M235.612 146.064a14.74 14.74 0 0 1 14.738 14.738v15.07a8.39 8.39 0 0 0 8.39 8.39h0a8.39 8.39 0 0 0 8.39-8.39v-15.07a14.74 14.74 0 0 1 14.738-14.738h3.13 2.01c7.113 0 12.88-5.766 12.88-12.88v-.275c0-7.113-5.766-12.88-12.88-12.88h-60.994c-7.113 0-12.88 5.766-12.88 12.88h0c0 6.972 5.548 12.679 12.518 12.875l9.96.28z" fill="#cefffb"/><path d="M261.507 23.666s-66.783 75.224 0 75.224c51.06-.001 0-75.224 0-75.224z" fill="#ffc988"/><path d="M439.762 259.279v42.386h-96.973c-7.291 0-13.211 5.909-13.211 13.211v14.407c0 5.033-2.042 9.591-5.342 12.881-3.29 3.3-7.848 5.342-12.881 5.342-10.055 0-18.213-8.158-18.213-18.223v-14.407c0-3.651-1.475-6.951-3.867-9.344s-5.703-3.867-9.354-3.867c-7.291 0-13.211 5.909-13.211 13.211v7.508a14.56 14.56 0 0 1-4.28 10.334c-2.64 2.64-6.301 4.28-10.334 4.28-8.065 0-14.613-6.549-14.613-14.613v-7.508c0-7.302-5.92-13.211-13.211-13.211h-3.61c-7.302 0-13.211 5.909-13.211 13.211v43.964c0 9.529-3.857 18.161-10.107 24.4s-14.871 10.107-24.4 10.107c-19.058 0-34.497-15.449-34.497-34.507v-40.674a16.41 16.41 0 0 0-4.837-11.664c-2.991-2.991-7.116-4.837-11.664-4.837a16.5 16.5 0 0 0-16.501 16.501c0 6.972-5.662 12.623-12.633 12.623H72.93v-71.51c0-15.418 12.499-27.927 27.917-27.927h310.997c15.418-.001 27.918 12.508 27.918 27.926z" fill="#d36b16"/><path d="M444.184 504.501H67.816c-14.757 0-28.79-6.396-38.47-17.535l-5.273-6.068c-4.076-4.69-.745-11.999 5.469-11.999h452.915c6.214 0 9.545 7.309 5.469 11.999l-5.273 6.068c-9.679 11.138-23.711 17.535-38.469 17.535z" fill="#c7c5cc"/><path d="M495.875 470.029c-2.427-5.324-7.567-8.631-13.418-8.631h-35.192V259.281c0-19.536-15.89-35.431-35.42-35.431h-49.68a7.5 7.5 0 1 0 0 15h49.68c11.26 0 20.42 9.165 20.42 20.431v34.885h-89.476c-11.42 0-20.711 9.291-20.711 20.711v14.407c0 2.864-1.114 5.553-3.154 7.586-2.017 2.022-4.704 3.137-7.569 3.137-5.906 0-10.712-4.811-10.712-10.723v-14.407a20.58 20.58 0 0 0-6.064-14.647 20.59 20.59 0 0 0-14.657-6.063c-11.42 0-20.711 9.291-20.711 20.711v7.508a7.06 7.06 0 0 1-2.083 5.029c-1.344 1.344-3.13 2.084-5.031 2.084-3.922 0-7.113-3.191-7.113-7.113v-7.508c0-11.42-9.291-20.711-20.711-20.711h-3.609c-11.42 0-20.711 9.291-20.711 20.711v43.964c0 3.735-.757 7.349-2.187 10.674l-.07.159c-1.332 3.044-3.229 5.844-5.649 8.259-5.112 5.104-11.896 7.914-19.102 7.914-14.886 0-26.997-12.115-26.997-27.007v-40.674c0-6.422-2.501-12.45-7.033-16.967-4.535-4.536-10.561-7.034-16.968-7.034-13.234 0-24 10.767-24 24.001 0 2.825-2.303 5.123-5.133 5.123H80.426v-64.009c0-11.266 9.16-20.431 20.42-20.431h231.32a7.5 7.5 0 1 0 0-15h-39.67v-71.058c8.577-2.404 14.893-10.274 14.893-19.608v-.275c0-11.237-9.143-20.38-20.38-20.38h-21.495v-6.308c13.776-1.065 20.163-7.551 23.093-13.083 5.572-10.516 3.534-26.388-6.058-47.174-6.632-14.372-14.504-26.022-14.836-26.511-1.299-1.915-3.41-3.122-5.719-3.272a7.5 7.5 0 0 0-6.095 2.505c-.402.452-9.934 11.236-18.397 24.865-12.311 19.823-16.004 35.544-10.979 46.725 3.766 8.379 11.828 13.505 23.991 15.338v6.915h-24.499c-11.237 0-20.38 9.143-20.38 20.38 0 8.392 4.967 15.544 12.181 18.68v33.412a7.5 7.5 0 1 0 15 0v-31.512l2.585.073c.07.002.141.003.211.003a7.25 7.25 0 0 1 7.238 7.238v15.069c0 8.762 7.128 15.89 15.89 15.89s15.89-7.128 15.89-15.89v-15.069c0-2.348 1.129-4.432 2.866-5.755v68.803h-44.68v-11.68a7.5 7.5 0 1 0-15 0v11.68h-116.97c-19.531 0-35.42 15.895-35.42 35.431v202.117H29.543c-5.85 0-10.991 3.307-13.418 8.63s-1.55 11.374 2.288 15.79l5.273 6.067c11.109 12.783 27.194 20.115 44.131 20.115h376.368a58.45 58.45 0 0 0 44.132-20.115l5.272-6.067a14.59 14.59 0 0 0 2.286-15.79zM240.205 84.13c-4.413-9.809 7.896-31.54 20.48-47.721 10.24 17.383 19.679 40.247 14.667 49.707-1.49 2.812-4.794 4.507-9.839 5.066v-9.42a7.5 7.5 0 1 0-15 0v8.654c-4.719-.983-8.766-2.86-10.308-6.286zm19.424 76.672v15.069a.89.89 0 0 1-1.78 0v-15.069c0-12.224-9.914-22.175-22.122-22.238l-9.865-.277c-2.932-.083-5.229-2.445-5.229-5.378a5.39 5.39 0 0 1 5.38-5.38h60.994c2.967 0 5.38 2.413 5.38 5.38v.275c0 2.967-2.413 5.38-5.38 5.38h-1.935c-.026 0-.051-.004-.077-.004s-.051.004-.077.004h-3.051c-12.262 0-22.238 9.976-22.238 22.238zm-50.403 219.239h223.04v8.503H202.649a42.17 42.17 0 0 0 6.577-8.503zm-65.949 8.503H80.426v-8.503h56.286c1.825 3.109 4.03 5.969 6.565 8.503zm-62.851 41.879h55.978a7.5 7.5 0 1 0 0-15H80.426v-11.88h351.839v11.88H166.961a7.5 7.5 0 1 0 0 15h265.304v8.506H80.426v-8.506zm134.527-115.546a5.72 5.72 0 0 1 5.711-5.711h3.609a5.72 5.72 0 0 1 5.711 5.711v7.508c0 12.193 9.92 22.113 22.113 22.113a21.97 21.97 0 0 0 22.114-22.114v-7.508a5.72 5.72 0 0 1 5.711-5.711c1.534 0 2.973.593 4.05 1.671a5.68 5.68 0 0 1 1.672 4.04v14.407c0 14.184 11.534 25.723 25.712 25.723 6.881 0 13.342-2.681 18.176-7.53a25.51 25.51 0 0 0 7.548-18.192v-14.407a5.72 5.72 0 0 1 5.711-5.711h89.476v55.875H214.501a42.63 42.63 0 0 0 .452-6.2v-43.964zM92.814 338.29c11.102 0 20.133-9.027 20.133-20.123 0-4.963 4.038-9.001 9-9.001a8.95 8.95 0 0 1 6.37 2.649c1.696 1.69 2.631 3.946 2.631 6.352v40.674c0 2.107.16 4.176.461 6.2H80.426V338.29h12.388zM80.426 453.929h351.839v7.469H80.426v-7.469zm396.568 28.117c-8.26 9.504-20.219 14.955-32.81 14.955H67.816a43.45 43.45 0 0 1-32.809-14.955l-4.908-5.647 451.801.001-4.906 5.646zM346.331 270.833h1.408a7.5 7.5 0 1 0 0-15h-1.408a7.5 7.5 0 1 0 0 15zm-26.6-.735a7.5 7.5 0 1 0 0 15h1.408a7.5 7.5 0 1 0 0-15h-1.408zM159.88 252.566a7.5 7.5 0 1 0 0 15h1.408a7.5 7.5 0 1 0 0-15h-1.408zM295.614 27.794c1.5 0 3.016-.449 4.333-1.384l18.029-12.792c3.378-2.397 4.174-7.079 1.777-10.457a7.5 7.5 0 0 0-10.457-1.777l-18.029 12.792c-3.378 2.397-4.174 7.079-1.777 10.457 1.463 2.061 3.775 3.161 6.124 3.161zm.067 24.338c-.718 4.08 2.008 7.969 6.087 8.687l21.772 3.83c.44.077.877.114 1.309.114 3.572 0 6.737-2.562 7.378-6.201.718-4.08-2.008-7.969-6.087-8.687l-21.772-3.83a7.5 7.5 0 0 0-8.687 6.087zM195.045 13.618l18.03 12.792c1.317.935 2.833 1.384 4.333 1.384 2.348 0 4.661-1.101 6.123-3.161a7.5 7.5 0 0 0-1.777-10.457l-18.03-12.792c-3.378-2.396-8.06-1.6-10.457 1.777s-1.6 8.059 1.778 10.457zm-6.872 51.145c.431 0 .869-.037 1.308-.114l21.772-3.83a7.5 7.5 0 0 0-2.599-14.774l-21.772 3.83a7.5 7.5 0 0 0-6.087 8.687c.64 3.64 3.806 6.201 7.378 6.201z"/></svg>